<!--?xml version="1.0" encoding="utf-8"?-->
<!-- Generator: Adobe Illustrator 18.1.1, SVG Export Plug-In . SVG Version: 6.00 Build 0)  -->

<svg version="1.1" id="_x31_0" xmlns="http://www.w3.org/2000/svg" xmlns:xlink="http://www.w3.org/1999/xlink" x="0px" y="0px" viewBox="0 0 512 512" style="width: 256px; height: 256px; opacity: 1;" xml:space="preserve">
<style type="text/css">
	.st0{fill:#374149;}
</style>
<g>
	<path class="st0" d="M37.338,361.172l-0.015,0.156h437.363L448.065,81.203C443.686,35.133,405.033,0,358.779,0H153.225
		c-46.25,0-84.906,35.133-89.282,81.203l-24.242,255.09l-2.378,24.879H37.338z" style="fill: rgb(200, 140, 0);"></path>
	<path class="st0" d="M479.666,413.84l-1.578-16.531H33.916l-1.582,16.531c-4.98,52.637,36.41,98.16,89.29,98.16h268.762
		C443.264,512,484.65,466.477,479.666,413.84z M139.67,476.809c-12.152,0-22.058-9.848-22.058-22.004
		c0-12.156,9.906-22.062,22.058-22.062c12.157,0,22.004,9.906,22.004,22.062C161.674,466.961,151.826,476.809,139.67,476.809z" style="fill: rgb(200, 140, 0);"></path>
</g>
</svg>
