<!--?xml version="1.0" encoding="utf-8"?-->
<!-- Generator: Adobe Illustrator 19.1.1, SVG Export Plug-In . SVG Version: 6.00 Build 0)  -->
<svg version="1.1" id="_x31_0" xmlns="http://www.w3.org/2000/svg" xmlns:xlink="http://www.w3.org/1999/xlink" x="0px" y="0px" viewBox="0 0 512 512" style="width: 256px; height: 256px; opacity: 1;" xml:space="preserve">
<style type="text/css">
	.st0{fill:#374149;}
</style>
<g>
	<polygon class="st0" points="207.945,367.765 206.362,364.917 206.331,364.945 206.249,364.8 182.897,388.155 186.429,394.284 
		213.82,378.722 213.976,378.632 213.976,378.632 214.117,378.554 	" style="fill: rgb(0, 98, 10);"></polygon>
	<path class="st0" d="M511.859,288.937l0.141-0.078l-8.61-15.114l4.086-2.293c4.214-2.414,5.699-7.805,3.285-12.015l-14.988-26.266
		c-5.02,2.851-11.398,1.117-14.25-3.902c-0.281-0.481-0.476-0.985-0.672-1.485c-0.117-0.301-0.226-0.598-0.312-0.906
		c-0.29-1.023-0.414-2.062-0.387-3.094c0.008-0.32,0.028-0.641,0.062-0.965c0.059-0.519,0.126-1.035,0.258-1.543
		c0.742-2.539,2.414-4.89,4.953-6.316l-18.023-31.527c-5.02,2.847-11.398,1.113-14.246-3.902c-0.285-0.481-0.48-0.985-0.676-1.485
		c-0.117-0.301-0.222-0.602-0.312-0.91c-0.293-1.023-0.414-2.062-0.387-3.098c0.008-0.316,0.028-0.633,0.063-0.953
		c0.058-0.519,0.125-1.039,0.258-1.547c0.742-2.602,2.414-4.894,4.957-6.316l-10.965-19.203c-2.027-3.531-6.114-4.988-9.875-3.992
		l-0.011,0.004c-0.723,0.191-1.454,0.316-2.13,0.702l-20.718,11.821l-5.558,3.121l0.031,0.031l-0.145,0.082l2.789,2.785
		l-33.434,33.438l-32.246,32.024l0.5-0.282l-0.418,0.418l30.848-17.59l37.164,65.102l-40.508,23.106l-28.094-49.16l-7.473-13.164
		l-0.031,0.031l-0.082-0.145l-25.523,25.52l30.848,54.199l-40.508,23.106l-19.383-34.066l-5.035-8.934l-0.031,0.031l-0.082-0.145
		l-15.61,15.61l21.742,38.035l-40.512,23.102l-12.168-21.258l-3.141-5.57l-0.031,0.027l-0.082-0.145l-15.485,15.488l12.512,21.989
		l-40.485,23.09l-0.027,0.016l-4.844-8.524l-1.238-2.266l-0.031,0.031l-0.082-0.144l-22.855,22.855
		c2.293,4.586,0.867,10.16-3.223,13.133l14.993,26.266c1.984,3.5,5.934,4.954,9.656,4.066c0.16-0.035,0.328-0.102,0.492-0.144
		c0.52-0.157,1.054-0.196,1.558-0.454l8.61,15.114l193.434-110.34l1.238-0.707l0,0l0.137-0.078l-8.609-15.113l-8.61-15.118
		l-1.672-2.91c-1.797-3.16-0.68-7.246,2.477-9.042c1.609-0.93,3.406-1.114,5.082-0.684c1.672,0.496,3.094,1.551,4.024,3.164
		l1.671,2.91l8.614,15.114l8.512,14.945l0.019,0.031l0,0l0.078,0.137l118.43-67.578l0.297-0.168V288.937z M451.359,310.663
		l-9.23,5.266l-3.16-5.453l-3.098-5.45l9.293-5.266l3.098,5.45L451.359,310.663z M404.281,337.483l-9.23,5.329l-3.156-5.45
		l-3.098-5.516l9.289-5.266L404.281,337.483z M420.015,328.566l-9.293,5.266l-3.098-5.453l-3.156-5.45l9.289-5.266l3.098,5.449
		L420.015,328.566z M464.676,244.199l-40.512,23.106L387,202.139l40.511-23.106l37.149,65.134L464.676,244.199z M435.687,319.644
		l-9.293,5.266l-3.098-5.45l-3.098-5.512l9.23-5.27l3.16,5.454L435.687,319.644z M460.836,290.78l3.098,5.512l3.098,5.453
		l-9.23,5.262l-3.098-5.45l-3.16-5.453L460.836,290.78z M482.761,292.761l-9.289,5.266l-6.195-10.902l9.23-5.262l3.156,5.449
		L482.761,292.761z M496.824,284.71l-7.621,4.399l-3.094-5.454l-3.161-5.512l7.68-4.336l3.098,5.45L496.824,284.71z
		 M362.285,347.022l6.191,10.902l-7.554,4.336l-3.098-5.449l-3.16-5.454L362.285,347.022z M340.171,374.093l-7.867,4.461
		l-3.098-5.453l-3.16-5.45l7.867-4.461l3.16,5.45L340.171,374.093z M325.863,382.269l-7.867,4.461l-3.098-5.453l-3.161-5.45
		l7.93-4.523l3.098,5.453L325.863,382.269z M311.554,390.383l-7.867,4.523l-3.098-5.45l-3.098-5.515l7.867-4.461l3.098,5.453
		L311.554,390.383z M354.48,365.917l-7.867,4.52l-3.098-5.45l-3.16-5.515l7.867-4.458l3.16,5.45L354.48,365.917z M282.937,406.738
		l-7.867,4.461l-6.195-10.902l7.867-4.523l3.098,5.449L282.937,406.738z M268.625,414.851l-7.867,4.523l-3.094-5.454l-3.098-5.511
		l7.867-4.461L268.625,414.851z M254.378,423.026l-7.93,4.461l-6.191-10.902l7.867-4.462l3.094,5.454L254.378,423.026z
		 M297.241,398.558l-7.863,4.461l-6.195-10.902l7.867-4.458L297.241,398.558z M240.069,431.203l-7.867,4.461l-3.156-5.449
		l-3.098-5.454l7.867-4.519l3.094,5.511L240.069,431.203z M225.761,439.32l-7.867,4.519l-3.098-5.45l-3.156-5.511l7.867-4.461
		l3.156,5.449L225.761,439.32z M211.453,447.495l-7.867,4.52l-3.098-5.512l-3.161-5.449l7.867-4.462l3.161,5.45L211.453,447.495z
		 M197.144,455.671l-6.258,3.531l-3.098-5.449l-3.157-5.454l6.254-3.594l3.16,5.515L197.144,455.671z" style="fill: rgb(0, 98, 10);"></path>
	<path class="st0" d="M294.183,292.362c-0.023,0.008-0.039,0.019-0.062,0.027c-0.707,0.234-1.558,0.051-2.02-0.742l-3.554-6.293
		l-0.914-1.711l-0.031,0.032l-0.082-0.145l-5.141,5.145l21.926,38.402l27.63-15.734l-20.707-36.364l-5.383-9.546l-0.031,0.031
		l-0.082-0.145l-12.329,12.328l1.86,12.883C295.413,291.441,294.874,292.101,294.183,292.362z" style="fill: rgb(0, 98, 10);"></path>
	<path class="st0" d="M424.832,189.319l-0.031-0.051l0,0l-0.078-0.136l-27.473,15.706l-0.015,0.008l0,0l-0.137,0.078l29.793,52.282
		l27.52-15.7l0.031-0.019l0,0l0.137-0.078L424.832,189.319z M416.336,222.699c-0.703,0.238-1.555,0.035-2.02-0.801l-7.992-13.938
		c-0.246-0.496-0.058-1.176,0.496-1.485l5.762-3.285c1.051-0.555,2.356,0.062,2.539,1.242l2.355,16.414
		c0.122,0.926-0.434,1.606-1.136,1.848C416.34,222.695,416.336,222.695,416.336,222.699z" style="fill: rgb(0, 98, 10);"></path>
	<path class="st0" d="M375.105,286.69l27.434-15.586l0.117-0.07l0,0l0.141-0.078L373,218.678l-27.317,15.52l-0.234,0.133l0,0
		l-0.137,0.078L375.105,286.69z M364.554,252.241c-0.707,0.242-1.558,0.039-2.023-0.797l-7.989-13.938
		c-0.25-0.496-0.062-1.175,0.496-1.484l5.758-3.285c1.054-0.618,2.355,0.062,2.539,1.238l2.355,16.418
		C365.816,251.319,365.257,252.003,364.554,252.241L364.554,252.241z" style="fill: rgb(0, 98, 10);"></path>
	<polygon class="st0" points="259.569,321.339 256.101,315.175 256.073,315.207 255.992,315.062 232.636,338.413 245.335,360.715 
		272.855,345.014 272.886,344.995 272.886,344.995 273.023,344.917 	" style="fill: rgb(0, 98, 10);"></polygon>
	<path class="st0" d="M120.491,325.714l-42.246-42.25l-0.184-0.18l0,0l-0.11-0.113l-22.511,22.507l42.542,42.543L120.491,325.714z
		 M65.073,304.808l4.691-4.696c0.855-0.855,2.297-0.586,2.785,0.531l6.586,15.176c0.762,1.734-1.438,3.234-2.782,1.894
		l-11.351-11.351C64.593,305.952,64.628,305.253,65.073,304.808z" style="fill: rgb(0, 98, 10);"></path>
	<path class="st0" d="M265.695,254.483l-12.305-12.305l-2.371-2.371c-2.602-2.602-2.602-6.824,0.008-9.434
		c1.301-1.297,3-1.953,4.71-1.953c1.699,0.008,3.41,0.656,4.711,1.957l2.375,2.371l12.301,12.301l12.293,12.293l96.75-96.75
		l-12.294-12.294l3.325-3.324c3.445-3.445,3.445-9.027,0-12.477l-21.234-21.234l-0.004-0.003l0,0l-0.11-0.11
		c-4.094,4.09-10.734,4.102-14.836,0c-2.039-2.043-3.07-4.73-3.07-7.418c0-2.687,1.031-5.374,3.07-7.418l-25.66-25.657
		c-4.09,4.09-10.738,4.09-14.832,0c-2.047-2.05-3.07-4.73-3.07-7.418c0-2.687,1.031-5.375,3.07-7.414l-15.618-15.621
		c-3.445-3.446-9.027-3.446-12.476,0L2.577,308.062c-3.437,3.438-3.437,9.019,0.008,12.469l15.66,15.66
		c1.91-1.543,4.242-2.32,6.578-2.32c2.687,0,5.367,1.019,7.418,3.07c3.82,3.82,4.074,9.886,0.75,13.996l25.746,25.746
		c1.91-1.546,4.242-2.32,6.578-2.32c2.688,0,5.375,1.031,7.418,3.07c3.828,3.832,4.074,9.886,0.75,13.996l21.395,21.39
		c3.367,3.371,8.766,3.45,12.222,0.238l12.301,12.301l158.582-158.582L265.695,254.483z M110.511,400.765l5.098-5.098l4.449,4.45
		l4.442,4.441l-5.098,5.098l-4.442-4.441L110.511,400.765z M77.952,272.698l53.012,53.015L97.983,358.69l-53.011-53.012
		L77.952,272.698z M240.921,288.132l-6.402,6.406l-4.442-4.442l-4.45-4.45l6.402-6.402l4.454,4.45L240.921,288.132z
		 M220.393,290.882l4.45,4.45l4.442,4.442l-6.414,6.414l-4.442-4.442l-4.449-4.449L220.393,290.882z M208.745,302.53l4.449,4.449
		l4.442,4.442l-6.402,6.402l-4.442-4.438l-4.449-4.453L208.745,302.53z M197.105,314.167l4.45,4.453l4.441,4.438l-6.402,6.406
		l-4.441-4.442l-4.45-4.449L197.105,314.167z M173.82,337.456l4.449,4.45l4.442,4.441l-6.402,6.402l-4.442-4.441l-4.453-4.446
		L173.82,337.456z M162.179,349.097l4.453,4.45l4.438,4.441l-6.41,6.41l-4.441-4.442l-4.45-4.449L162.179,349.097z M150.534,360.742
		l4.45,4.453l4.441,4.438l-6.406,6.406l-4.442-4.442l-4.45-4.449L150.534,360.742z M185.468,325.808l4.45,4.449l4.441,4.442
		l-6.414,6.414l-4.442-4.442l-4.449-4.45L185.468,325.808z M140.917,209.734l32.98-32.981l53.012,53.012l-32.981,32.98
		L140.917,209.734z M92.941,257.71l32.98-32.98l52.782,52.785l0.23,0.226l-32.98,32.981L92.941,257.71L92.941,257.71z
		 M138.893,372.383l4.45,4.449l4.442,4.442l-6.402,6.402l-4.442-4.438l-4.45-4.454L138.893,372.383z M136.144,392.91l-6.41,6.414
		l-4.442-4.441l-4.449-4.45l6.41-6.414l4.45,4.454L136.144,392.91z M252.569,276.487l-6.414,6.41l-4.438-4.442l-4.454-4.449
		l6.414-6.41l4.45,4.449L252.569,276.487z M259.55,260.624l4.442,4.442l-6.188,6.187l-4.438-4.442l-4.453-4.449l6.187-6.188
		L259.55,260.624z M284.565,172.112l-32.98,32.977l-53.012-53.012l32.981-32.981L284.565,172.112z M349.453,179.604l-4.442-4.441
		l-4.449-4.45l7.546-7.547l4.45,4.45l4.442,4.442L349.453,179.604z M336.679,192.378l-4.442-4.442l-4.449-4.449l7.539-7.539
		l4.449,4.45l4.442,4.441L336.679,192.378z M276.695,234.581l7.538-7.539l4.45,4.45l4.442,4.442l-7.539,7.539l-4.442-4.442
		L276.695,234.581z M305.898,223.159l-7.539,7.539l-4.442-4.442l-4.45-4.45l7.539-7.538l4.45,4.453L305.898,223.159z
		 M318.671,210.386l-7.538,7.539l-4.442-4.442l-4.45-4.449l7.539-7.539l4.45,4.449L318.671,210.386z M315.015,196.261l7.539-7.539
		l4.449,4.449l4.442,4.442l-7.539,7.539l-4.441-4.442L315.015,196.261z M362.234,166.823l-4.442-4.442l-4.45-4.45l6.23-6.23
		l4.45,4.45l4.442,4.442L362.234,166.823z M326.706,129.971l-32.98,32.977l-53.012-53.012l0,0l32.981-32.98l53.011,53.011V129.971z" style="fill: rgb(0, 98, 10);"></path>
	<path class="st0" d="M193.929,252.272l22.512-22.507l-42.43-42.43l0,0l0,0l-0.114-0.113l-22.347,22.347l-0.051,0.051l0,0
		l-0.11,0.114L193.929,252.272z M161.499,208.378l4.695-4.691c0.856-0.855,2.294-0.586,2.782,0.531l6.59,15.172
		c0.758,1.738-1.442,3.238-2.785,1.894l-11.352-11.351C161.019,209.523,161.046,208.835,161.499,208.378z" style="fill: rgb(0, 98, 10);"></path>
	<path class="st0" d="M273.695,87.425l-22.352,22.351l-0.047,0.047l0,0l-0.113,0.113l42.543,42.543l22.394-22.394l0.004-0.004l0,0
		l0.11-0.11L273.695,87.425z M272.273,121.795l-11.351-11.351c-0.41-0.41-0.387-1.102,0.07-1.554l4.691-4.692
		c0.855-0.855,2.297-0.586,2.785,0.531l6.586,15.172C275.804,121.647,273.617,123.135,272.273,121.795z" style="fill: rgb(0, 98, 10);"></path>
	<path class="st0" d="M231.663,129.682l-0.109-0.114l-22.254,22.25l-0.144,0.145l0,0l-0.114,0.113l42.543,42.543l22.394-22.394
		l0.004-0.004l0,0l0.11-0.11l-42.336-42.34L231.663,129.682L231.663,129.682z M226.3,146.894l6.586,15.175
		c0.762,1.734-1.438,3.238-2.782,1.891l-11.351-11.348c-0.41-0.414-0.375-1.11,0.07-1.554l4.691-4.695
		C224.37,145.51,225.812,145.78,226.3,146.894z" style="fill: rgb(0, 98, 10);"></path>
	<path class="st0" d="M145.953,300.253l22.301-22.301l0.098-0.098h-0.004l0.113-0.114l-42.539-42.542l-22.301,22.305l-0.098,0.094
		l0,0l-0.113,0.113L145.953,300.253z M113.284,256.593l4.696-4.695c0.855-0.852,2.293-0.582,2.785,0.535l6.586,15.172
		c0.758,1.738-1.438,3.238-2.782,1.89l-11.352-11.348C112.808,257.738,112.843,257.039,113.284,256.593z" style="fill: rgb(0, 98, 10);"></path>
</g>
</svg>
